PathFileType	4	(X/Y/Z)	Static 1_gm.trc
DataRate	CameraRate	NumFrames	NumMarkers	Units	OrigDataRate	OrigDataStartFrame	OrigNumFrames
150	150	4	82	mm	150	199	529
Frame#	Time	P1			P2			P3			ST1			ST2			ST3			LACR1			LACR2			LACR3			LUA1			LUA2			LUA3			LUA4			LLA1			LLA2			LLA3			LLA4			LH1			LH2			LH3			RACR1			RACR2			RACR3			RUA1			RUA2			RUA3			RUA4			RLA1			RLA2			RLA3			RLA4			RH1			RH2			RH3			REL			REM			RRS			RUS			RMC3			RMCP2			RMCP3			RMCP5			RAA			RAI			RTS			RPC			RAC			RGH			C7			T8			IJ			PX			RElevationplaneH2			RShoulderElevationH2			RShoulderRotationH2			RElevationplaneH1			RShoulderElevationH1			RShoulderRotationH1			RElbowFlExt			RElbowProSupination			RWristFlExt			RWristDeviation			RScapProRetraction			RScapRotation			RScapTilting			RTrunkFlExt			RTrunkLateralFl			RTrunkAxialRotation			RH2SAG_Flexion			RH2SAG_Abduction			RH2SAG_Rotation			RH2FRONT_Abduction			RH2FRONT_Flexion			RH2FRONT_Rotation			RH1SAG_Flexion			RH1SAG_Abduction			RH1SAG_Rotation			RH1FRONT_Abduction			RH1FRONT_Flexion			RH1FRONT_Rotation			REB			HWM		
		X1	Y1	Z1	X2	Y2	Z2	X3	Y3	Z3	X4	Y4	Z4	X5	Y5	Z5	X6	Y6	Z6	X7	Y7	Z7	X8	Y8	Z8	X9	Y9	Z9	X10	Y10	Z10	X11	Y11	Z11	X12	Y12	Z12	X13	Y13	Z13	X14	Y14	Z14	X15	Y15	Z15	X16	Y16	Z16	X17	Y17	Z17	X18	Y18	Z18	X19	Y19	Z19	X20	Y20	Z20	X21	Y21	Z21	X22	Y22	Z22	X23	Y23	Z23	X24	Y24	Z24	X25	Y25	Z25	X26	Y26	Z26	X27	Y27	Z27	X28	Y28	Z28	X29	Y29	Z29	X30	Y30	Z30	X31	Y31	Z31	X32	Y32	Z32	X33	Y33	Z33	X34	Y34	Z34	X35	Y35	Z35	X36	Y36	Z36	X37	Y37	Z37	X38	Y38	Z38	X39	Y39	Z39	X40	Y40	Z40	X41	Y41	Z41	X42	Y42	Z42	X43	Y43	Z43	X44	Y44	Z44	X45	Y45	Z45	X46	Y46	Z46	X47	Y47	Z47	X48	Y48	Z48	X49	Y49	Z49	X50	Y50	Z50	X51	Y51	Z51	X52	Y52	Z52	X53	Y53	Z53	X54	Y54	Z54	X55	Y55	Z55	X56	Y56	Z56	X57	Y57	Z57	X58	Y58	Z58	X59	Y59	Z59	X60	Y60	Z60	X61	Y61	Z61	X62	Y62	Z62	X63	Y63	Z63	X64	Y64	Z64	X65	Y65	Z65	X66	Y66	Z66	X67	Y67	Z67	X68	Y68	Z68	X69	Y69	Z69	X70	Y70	Z70	X71	Y71	Z71	X72	Y72	Z72	X73	Y73	Z73	X74	Y74	Z74	X75	Y75	Z75	X76	Y76	Z76	X77	Y77	Z77	X78	Y78	Z78	X79	Y79	Z79	X80	Y80	Z80	X81	Y81	Z81	X82	Y82	Z82
	
199	1.320000	334.362640	1635.696167	-774.506531	243.233704	1704.479614	-761.561035	190.235260	1601.420166	-768.247620	327.346954	1167.263428	-27.296902	349.334320	1114.101929	5.080622	329.975983	1166.206299	28.805086	275.440430	1267.832520	-213.246704	184.149902	1230.165894	-149.793152	215.169327	1170.984741	-238.033630	229.856445	1076.232300	-215.659729	248.292389	1008.367004	-216.294388	286.646851	1026.156006	-196.089050	282.298401	1101.678223	-195.893646	445.681305	737.341003	-199.688904	515.351074	747.486938	-264.445221	547.949036	823.177856	-159.492920	458.227478	771.890015	-141.903717	530.492004	703.140442	-191.294693	580.059143	701.076111	-176.480194	543.546631	726.481934	-148.220871	288.197296	1256.337646	238.032913	242.011490	1159.344360	264.012482	205.387634	1218.083862	173.926666	307.668365	1067.221191	217.429764	317.480072	1006.128967	214.236603	263.491302	989.764709	233.543289	255.562195	1057.287109	234.252472	470.584900	779.278564	154.354477	566.123840	817.228577	154.812515	537.989014	738.461853	253.926086	458.676910	730.264343	196.001144	553.620544	728.157898	128.739166	591.475464	708.038391	153.911987	543.394592	698.256714	178.361328	330.553772	853.575562	229.197754	288.015228	838.623901	185.313675	521.021606	721.580566	122.502487	521.052185	715.721619	171.863617	559.755859	708.012573	150.954361	603.938599	704.327881	122.715256	607.169434	694.719849	149.780090	580.359497	668.643494	172.511047	190.121033	1160.711182	145.328033	157.158752	1036.838989	105.110771	175.170151	1176.591064	77.962761	292.629700	1155.577881	130.882172	267.478729	1187.675049	169.755203	265.986847	1144.192993	156.409454	196.751801	1253.232666	2.743614	152.228806	1097.241577	16.088789	301.184204	1176.207275	2.634919	353.877197	1009.226929	1.864753	0.000000	0.000000	40.586651	0.000000	0.000000	-9.997300	0.000000	0.000000	-19.044785	0.000000	0.000000	40.586651	0.000000	0.000000	-9.997300	0.000000	0.000000	1.614103	0.000000	0.000000	49.763046	0.000000	0.000000	138.730011	0.000000	0.000000	-16.600126	0.000000	0.000000	4.800074	0.000000	0.000000	10.512018	0.000000	0.000000	15.448023	0.000000	0.000000	-11.111646	0.000000	0.000000	0.225215	0.000000	0.000000	-0.236013	0.000000	0.000000	-0.055517	0.000000	0.000000	6.542454	0.000000	0.000000	-7.575768	0.000000	0.000000	21.975494	0.000000	0.000000	-7.624845	0.000000	0.000000	6.485101	0.000000	0.000000	21.109253	0.000000	0.000000	6.542454	0.000000	0.000000	-7.575768	0.000000	0.000000	42.634380	0.000000	0.000000	-7.624845	0.000000	0.000000	6.485101	0.000000	0.000000	41.768139	309.284485	846.099731	207.255707	521.036865	718.651123	147.183044
200	1.326667	334.511536	1635.713257	-774.213562	243.425369	1704.525513	-761.218933	190.357864	1601.525391	-767.978333	327.333557	1167.283813	-27.274323	349.382874	1114.107422	5.090044	329.988281	1166.221802	28.821638	275.440155	1267.851440	-213.227142	184.173233	1230.186157	-149.799515	215.181702	1170.958740	-238.043610	229.874344	1076.256226	-215.657486	248.334747	1008.370789	-216.273880	286.659668	1026.163696	-196.046585	282.328094	1101.677002	-195.890060	445.677979	737.357727	-199.672516	515.312805	747.471313	-264.439423	547.975464	823.186646	-159.485931	458.220520	771.930664	-141.912674	530.511780	703.177917	-191.304260	580.061157	701.053833	-176.435013	543.557678	726.456665	-148.237213	288.217499	1256.330566	238.029205	242.017365	1159.337769	264.009521	205.406982	1218.074463	173.947220	307.694214	1067.234253	217.402176	317.456787	1006.131104	214.249756	263.500549	989.743530	233.531235	255.574783	1057.288452	234.213409	470.602417	779.302063	154.327927	566.152893	817.255005	154.798462	538.005920	738.509155	253.937973	458.675079	730.274048	195.987167	553.628113	728.169067	128.758560	591.481201	708.046082	153.894073	543.397766	698.254150	178.328629	330.551605	853.574219	229.257507	288.027100	838.608948	185.364471	521.053467	721.591553	122.505409	521.074585	715.744751	171.867996	559.761292	708.019958	150.941528	603.944153	704.353271	122.700272	607.174438	694.726562	149.758514	580.363525	668.635437	172.471313	190.124802	1160.708008	145.337601	157.146942	1036.838623	105.124390	175.170212	1176.588745	77.973320	292.631836	1155.564331	130.883713	267.487122	1187.664551	169.758362	265.989838	1144.182373	156.413239	196.695282	1253.149536	2.829486	152.287003	1097.126221	16.180285	301.181366	1176.197021	2.668470	353.990540	1009.253601	1.860586	0.000000	0.000000	40.333759	0.000000	0.000000	-9.981284	0.000000	0.000000	-18.797621	0.000000	0.000000	40.333759	0.000000	0.000000	-9.981284	0.000000	0.000000	1.831016	0.000000	0.000000	49.785503	0.000000	0.000000	138.746582	0.000000	0.000000	-16.590618	0.000000	0.000000	4.803819	0.000000	0.000000	10.480582	0.000000	0.000000	15.451819	0.000000	0.000000	-11.160148	0.000000	0.000000	0.230174	0.000000	0.000000	-0.196123	0.000000	0.000000	-0.030384	0.000000	0.000000	6.498423	0.000000	0.000000	-7.592379	0.000000	0.000000	21.967791	0.000000	0.000000	-7.640897	0.000000	0.000000	6.441210	0.000000	0.000000	21.105555	0.000000	0.000000	6.498423	0.000000	0.000000	-7.592379	0.000000	0.000000	42.596428	0.000000	0.000000	-7.640897	0.000000	0.000000	6.441210	0.000000	0.000000	41.734192	309.289368	846.091553	207.310989	521.064026	718.668152	147.186707
201	1.333333	334.660492	1635.716553	-773.907593	243.586777	1704.573120	-760.857300	190.474442	1601.599121	-767.714600	327.366608	1167.289673	-27.281830	349.387543	1114.130737	5.104947	329.996002	1166.176270	28.829586	275.480621	1267.844727	-213.257416	184.201675	1230.196289	-149.799515	215.195999	1170.964233	-238.034622	229.891418	1076.265015	-215.679092	248.320297	1008.387207	-216.267899	286.669281	1026.162231	-196.046890	282.329193	1101.674927	-195.860611	445.721985	737.344360	-199.681595	515.337219	747.491638	-264.415894	547.970276	823.200867	-159.487549	458.220581	771.950073	-141.910049	530.511963	703.154663	-191.270264	580.094238	701.113953	-176.443497	543.547058	726.474121	-148.208572	288.240173	1256.343384	238.049469	242.023773	1159.343140	264.016144	205.417679	1218.102295	173.937759	307.701111	1067.226196	217.448288	317.479919	1006.119263	214.286819	263.508270	989.763794	233.544281	255.578857	1057.251709	234.242615	470.608673	779.306702	154.327469	566.162903	817.274658	154.817032	538.010010	738.505249	253.952667	458.665985	730.287109	196.009735	553.637573	728.174683	128.748886	591.480896	708.030945	153.872467	543.399536	698.260498	178.379303	330.571014	853.566833	229.267960	288.063019	838.608215	185.356689	521.056885	721.602905	122.517349	521.076233	715.753601	171.879623	559.760559	708.020081	150.951462	603.920410	704.312988	122.679443	607.163696	694.693604	149.738754	580.351318	668.629028	172.480240	190.141495	1160.738770	145.331299	157.155304	1036.877686	105.099358	175.195755	1176.629272	77.967361	292.649536	1155.586426	130.887787	267.503937	1187.684448	169.763657	266.003662	1144.204102	156.413055	196.703430	1253.135010	2.780855	152.296112	1097.103760	16.042273	301.194489	1176.189209	2.660755	354.014832	1009.249451	1.824709	0.000000	0.000000	40.294830	0.000000	0.000000	-9.996176	0.000000	0.000000	-18.718576	0.000000	0.000000	40.294830	0.000000	0.000000	-9.996176	0.000000	0.000000	1.888416	0.000000	0.000000	49.787643	0.000000	0.000000	138.757126	0.000000	0.000000	-16.546740	0.000000	0.000000	4.772605	0.000000	0.000000	10.510640	0.000000	0.000000	15.439909	0.000000	0.000000	-11.171567	0.000000	0.000000	0.252159	0.000000	0.000000	-0.192320	0.000000	0.000000	-0.068900	0.000000	0.000000	6.503068	0.000000	0.000000	-7.608068	0.000000	0.000000	22.009109	0.000000	0.000000	-7.656754	0.000000	0.000000	6.445577	0.000000	0.000000	21.144480	0.000000	0.000000	6.503068	0.000000	0.000000	-7.608068	0.000000	0.000000	42.616104	0.000000	0.000000	-7.656754	0.000000	0.000000	6.445577	0.000000	0.000000	41.751472	309.317017	846.087524	207.312317	521.066528	718.678223	147.198486
202	1.340000	334.787994	1635.713501	-773.609619	243.743423	1704.628906	-760.557312	190.599075	1601.652588	-767.442627	327.365662	1167.271851	-27.280243	349.382080	1114.121216	5.096309	329.996124	1166.177490	28.829254	275.493378	1267.865112	-213.236099	184.203003	1230.214111	-149.790146	215.209442	1170.978882	-238.044006	229.907364	1076.248047	-215.666687	248.338516	1008.383484	-216.278656	286.711426	1026.178955	-196.044586	282.346985	1101.693604	-195.855042	445.719971	737.361511	-199.679092	515.360229	747.519592	-264.434296	547.982849	823.207642	-159.466553	458.245209	771.948669	-141.886810	530.518616	703.163635	-191.281647	580.108582	701.107910	-176.376617	543.597229	726.465271	-148.189209	288.252106	1256.322876	238.042480	242.035721	1159.341797	264.034271	205.409454	1218.109009	173.957794	307.712860	1067.252441	217.427521	317.480194	1006.146423	214.298264	263.507202	989.768616	233.545670	255.591202	1057.264038	234.241959	470.586700	779.317200	154.360825	566.175720	817.262451	154.807846	538.003723	738.549255	253.953232	458.682007	730.303650	196.026169	553.637817	728.164246	128.740845	591.494141	708.035706	153.908722	543.401611	698.282532	178.334183	330.584656	853.587219	229.295975	288.076080	838.618896	185.388535	521.042236	721.597351	122.538345	521.068115	715.761902	171.902252	559.769287	708.023560	150.944275	603.955078	704.322571	122.711998	607.178101	694.713196	149.777267	580.354980	668.646729	172.503922	190.110733	1160.741699	145.361496	157.086319	1036.885620	105.145355	175.146637	1176.632324	78.001678	292.613068	1155.567627	130.885330	267.486511	1187.672485	169.767914	265.973053	1144.191895	156.419617	196.711258	1253.139526	2.785872	152.290756	1097.113770	16.066710	301.195007	1176.183838	2.660033	353.999420	1009.238953	1.832607	0.000000	0.000000	40.346275	0.000000	0.000000	-10.005645	0.000000	0.000000	-18.766623	0.000000	0.000000	40.346275	0.000000	0.000000	-10.005645	0.000000	0.000000	1.832065	0.000000	0.000000	49.779091	0.000000	0.000000	138.763763	0.000000	0.000000	-16.576426	0.000000	0.000000	4.829185	0.000000	0.000000	10.520832	0.000000	0.000000	15.444118	0.000000	0.000000	-11.176815	0.000000	0.000000	0.246981	0.000000	0.000000	-0.197782	0.000000	0.000000	-0.061980	0.000000	0.000000	6.516132	0.000000	0.000000	-7.609409	0.000000	0.000000	22.013456	0.000000	0.000000	-7.658300	0.000000	0.000000	6.458505	0.000000	0.000000	21.146923	0.000000	0.000000	6.516132	0.000000	0.000000	-7.609409	0.000000	0.000000	42.612144	0.000000	0.000000	-7.658300	0.000000	0.000000	6.458505	0.000000	0.000000	41.745609	309.330383	846.103027	207.342255	521.055176	718.679626	147.220306
